# xmcd
#
# Track frame offsets:
#  150
#  25027
#  49067
#  86017
#  115405
#  144830
#  176160
#  202847
#  225820
#  260815
#  280210
#  311762
#
# Disc length: 4399 seconds
#
# Revision: 0
# Processed by: cddbd v1.5.1PL0 Copyright (c) Steve Scherf et al.
# Submitted via: Collectorz.com Music Collector 6.9
#
DISCID=9f112d0c
DTITLE=Various Artist - Cologne Dance Sampler 5
DYEAR=1995
DGENRE=Pop
TTITLE0=Captain Jack - Captain Jack
TTITLE1=Music Instructor - Hymn
TTITLE2=Magic Affair - The Rhythm Makes You Wanna Dance
TTITLE3=Ritmo Ritmo - Ritmo Ritmo
TTITLE4=Centory - Eye In The Sky
TTITLE5=Adiemus - Kayama
TTITLE6=Adiemus - Adiemus
TTITLE7=Captain Jack - Captain Jack (Mix)
TTITLE8=Adiemus - Kayama (Mix)
TTITLE9=Cut'N'Move - I'm Alive
TTITLE10=Basic Element - This Must Be A Dream
TTITLE11=Cerrone - Mercy
EXTD=
EXTT0=
EXTT1=
EXTT2=
EXTT3=
EXTT4=
EXTT5=
EXTT6=
EXTT7=
EXTT8=
EXTT9=
EXTT10=
EXTT11=
PLAYORDER=
